<svg xmlns="http://www.w3.org/2000/svg" xmlns:xlink="http://www.w3.org/1999/xlink" viewBox="-20549 -2112 170 170">
  <defs>
    <style>
      .cls-1 {
        clip-path: url(#clip-Artboard_22);
      }

      .cls-2, .cls-3, .cls-4, .cls-6 {
        fill: #fff;
      }

      .cls-2, .cls-5, .cls-7 {
        opacity: 0.6;
      }

      .cls-3 {
        stroke: rgba(0,0,0,0);
      }

      .cls-4 {
        opacity: 0.5;
      }

      .cls-5, .cls-9 {
        fill: none;
      }

      .cls-5, .cls-7, .cls-9 {
        stroke: #fff;
      }

      .cls-7 {
        fill: rgba(0,0,0,0);
      }

      .cls-8 {
        fill: #312a45;
      }

      .cls-9 {
        stroke-width: 1.4px;
      }
    </style>
    <clipPath id="clip-Artboard_22">
      <rect x="-20549" y="-2112" width="170" height="170"/>
    </clipPath>
  </defs>
  <g id="Artboard_22" data-name="Artboard – 22" class="cls-1">
    <g id="Group_8970" data-name="Group 8970" transform="translate(-20549 -2112)">
      <path id="Path_6751" data-name="Path 6751" class="cls-2" d="M64.042,65.358v-28.3h3.8L69.274,31.7H66.689l2.566-10.622H51.881L54.448,31.7H51.862L53.3,37.055h3.8V50.595H39.765V65.358H64.042ZM53.978,24.886h13.18l-1.107,4.58H55.085ZM67.8,22.227l-.457,1.894H53.793l-.457-1.894Zm-12.53,8h10.6L65.511,31.7H55.626Zm-1.1,5.68-.819-3.06H67.782l-.818,3.06H54.174Zm4.064,1.146H62.9v28.3H59.591V50.595H58.238V37.055ZM40.911,51.74H58.445V65.358H40.911ZM87.793,66.5Z" transform="translate(68.232 39.329)"/>
      <path id="Path_6752" data-name="Path 6752" class="cls-2" d="M53.8,65.85H49.288V61.336H53.8ZM53.04,62.1H50.051v2.99H53.04Z" transform="translate(62.672 37.342)"/>
      <path id="Path_6753" data-name="Path 6753" class="cls-2" d="M46.452,65.85H41.939V61.336h4.513ZM45.69,62.1H42.7v2.99H45.69Z" transform="translate(77.023 37.342)"/>
      <path id="Path_6754" data-name="Path 6754" class="cls-2" d="M53.8,65.85H49.288V61.336H53.8ZM53.04,62.1H50.051v2.99H53.04Z" transform="translate(62.672 31.342)"/>
      <path id="Path_6755" data-name="Path 6755" class="cls-2" d="M53.8,65.85H49.288V61.336H53.8ZM53.04,62.1H50.051v2.99H53.04Z" transform="translate(69.672 31.342)"/>
      <path id="Path_6541" data-name="Path 6541" class="cls-3" d="M15.676,17.352q-5.359-1.5-13.463-3.595L-.009,13.1,0,5.9l2.026.523L3.327,9.694l6.928,1.83L10.262-.007l2.68.719L16.79,13.289l7.385,1.961a2.123,2.123,0,0,1,1.274,1.015,2.168,2.168,0,0,1,.228,1.605,2.035,2.035,0,0,1-.981,1.246,2.154,2.154,0,0,1-1.569.2Z" transform="translate(31.703 61.739)"/>
      <rect id="Rectangle_2547" data-name="Rectangle 2547" class="cls-4" width="3.989" height="1" rx="0.5" transform="translate(24.85 68.845) rotate(15)"/>
      <rect id="Rectangle_2549" data-name="Rectangle 2549" class="cls-4" width="0.997" height="1" rx="0.499" transform="translate(23.102 68.269) rotate(15)"/>
      <rect id="Rectangle_2550" data-name="Rectangle 2550" class="cls-4" width="7.979" height="1" rx="0.5" transform="translate(20.965 70.425) rotate(15)"/>
      <line id="Line_3246" data-name="Line 3246" class="cls-5" x2="101" transform="translate(32.5 105)"/>
      <path id="Path_6701" data-name="Path 6701" class="cls-6" d="M51.638,17.475c-.66,0-1.2-.27-1.2-.6s.54-.6,1.2-.6H53.9c.661,0,1.2.27,1.2.6s-.54.6-1.2.6Z" transform="translate(-8.146 95.371)"/>
      <path id="Path_6702" data-name="Path 6702" class="cls-6" d="M51.638,17.475c-.66,0-1.2-.27-1.2-.6s.54-.6,1.2-.6H53.9c.661,0,1.2.27,1.2.6s-.54.6-1.2.6Z" transform="translate(1.854 95.371)"/>
      <path id="Path_6703" data-name="Path 6703" class="cls-6" d="M51.638,17.475c-.66,0-1.2-.27-1.2-.6s.54-.6,1.2-.6H53.9c.661,0,1.2.27,1.2.6s-.54.6-1.2.6Z" transform="translate(11.854 95.371)"/>
      <path id="Path_6704" data-name="Path 6704" class="cls-6" d="M51.638,17.475c-.66,0-1.2-.27-1.2-.6s.54-.6,1.2-.6H53.9c.661,0,1.2.27,1.2.6s-.54.6-1.2.6Z" transform="translate(21.854 95.371)"/>
      <path id="Path_6705" data-name="Path 6705" class="cls-6" d="M51.638,17.475c-.66,0-1.2-.27-1.2-.6s.54-.6,1.2-.6H53.9c.661,0,1.2.27,1.2.6s-.54.6-1.2.6Z" transform="translate(31.854 95.371)"/>
      <path id="Path_6706" data-name="Path 6706" class="cls-6" d="M51.638,17.475c-.66,0-1.2-.27-1.2-.6s.54-.6,1.2-.6H53.9c.661,0,1.2.27,1.2.6s-.54.6-1.2.6Z" transform="translate(41.854 95.371)"/>
      <path id="Path_6707" data-name="Path 6707" class="cls-6" d="M51.638,17.475c-.66,0-1.2-.27-1.2-.6s.54-.6,1.2-.6H53.9c.661,0,1.2.27,1.2.6s-.54.6-1.2.6Z" transform="translate(51.854 95.371)"/>
      <path id="Path_6717" data-name="Path 6717" class="cls-6" d="M51.638,17.475c-.66,0-1.2-.27-1.2-.6s.54-.6,1.2-.6H53.9c.661,0,1.2.27,1.2.6s-.54.6-1.2.6Z" transform="translate(-18.146 95.371)"/>
      <path id="Path_6723" data-name="Path 6723" class="cls-6" d="M51.638,17.475c-.66,0-1.2-.27-1.2-.6s.54-.6,1.2-.6H53.9c.661,0,1.2.27,1.2.6s-.54.6-1.2.6Z" transform="translate(61.854 95.371)"/>
      <path id="Path_6724" data-name="Path 6724" class="cls-6" d="M51.638,17.475c-.66,0-1.2-.27-1.2-.6s.54-.6,1.2-.6H53.9c.661,0,1.2.27,1.2.6s-.54.6-1.2.6Z" transform="translate(71.854 95.371)"/>
      <path id="Path_6750" data-name="Path 6750" class="cls-7" d="M10.25-.086H111.5" transform="translate(22.25 120)"/>
      <path id="Path_6811" data-name="Path 6811" class="cls-8" d="M15,0A15,15,0,1,1,0,15,15,15,0,0,1,15,0Z" transform="translate(119 98)"/>
      <path id="Subtraction_6" data-name="Subtraction 6" class="cls-6" d="M20551,2136.559a12,12,0,1,1,12-12A12.012,12.012,0,0,1,20551,2136.559Zm-6.068-14.573h0l3.033,3.044a5.8,5.8,0,0,1,1.684,3.8v3.932h2.012v-3.638a7.748,7.748,0,0,0-.258-1.976,7.591,7.591,0,0,0-.82-1.982,7.856,7.856,0,0,0-1.207-1.548l-3.029-3.029,1.857-1.837h-5.2v5.125Zm8.932-3.237,1.844,1.848-3.918,3.767a7.343,7.343,0,0,1,.816,1.982l4.516-4.335,1.883,1.884v-5.145Z" transform="translate(-20417 -2011.561)"/>
      <path id="Path_6758" data-name="Path 6758" class="cls-5" d="M-20463-2054h15.9a2.984,2.984,0,0,0,1.736-3.256c-.334-2.448-3.861-1.462-3.861-1.462s.518-5.091-5.273-5.11-6.158,5.11-6.158,5.11-4.156-1.44-4.99,1.462S-20463-2054-20463-2054Z" transform="translate(20555 2129)"/>
      <line id="Line_3247" data-name="Line 3247" class="cls-9" y1="3.5" transform="translate(128.5 50.5)"/>
      <line id="Line_3248" data-name="Line 3248" class="cls-9" y1="3" transform="translate(134.561 52.939) rotate(45)"/>
      <line id="Line_3249" data-name="Line 3249" class="cls-9" y1="3" transform="translate(122.439 52.939) rotate(-45)"/>
      <path id="Path_6759" data-name="Path 6759" class="cls-5" d="M-20420.113-2033.957a2.741,2.741,0,0,1,2.9-3,2.741,2.741,0,0,1,2.9,3" transform="translate(20546 2094)"/>
    </g>
  </g>
</svg>
